<?xml version="1.0" encoding="UTF-8"?>
<!DOCTYPE svg PUBLIC "-//W3C//DTD SVG 1.1//EN" "http://www.w3.org/Graphics/SVG/1.1/DTD/svg11.dtd">
<!-- Creator: CorelDRAW 2021 (64-Bit) -->
<svg xmlns="http://www.w3.org/2000/svg" xml:space="preserve" width="2.23667in" height="2.23667in" version="1.1" style="shape-rendering:geometricPrecision; text-rendering:geometricPrecision; image-rendering:optimizeQuality; fill-rule:evenodd; clip-rule:evenodd"
viewBox="0 0 203.23 203.23"
 xmlns:xlink="http://www.w3.org/1999/xlink"
 xmlns:xodm="http://www.corel.com/coreldraw/odm/2003">
 <defs>
  <style type="text/css">
   <![CDATA[
    .fil0 {fill:#1A1A1A}
    .fil1 {fill:#6F00D1;fill-rule:nonzero}
    .fil2 {fill:#FDFDFD;fill-rule:nonzero}
   ]]>
  </style>
 </defs>
 <g id="Capa_x0020_1">
  <metadata id="CorelCorpID_0Corel-Layer"/>
  <g id="_2076956797776">
   <circle class="fil0" cx="101.61" cy="101.61" r="101.61"/>
   <g>
    <g>
     <path class="fil1" d="M48.09 121.5c-9.44,0 -14.16,-4.19 -14.16,-12.57l0 -33.02c0,-8.38 4.72,-12.57 14.16,-12.57l53.24 0 0 9.95 -47.99 0c-4.08,0 -6.13,1.88 -6.13,5.65l0 26.98c0,3.77 2.04,5.65 6.13,5.65l36.05 0 0 -15.04c0,-2.55 -1.43,-3.82 -4.3,-3.82l-26.82 0 0 -8.44 33.02 0c6.95,0 10.42,2.89 10.42,8.67l0 28.57 -53.64 0z"/>
     <polygon class="fil1" points="132.22,114.4 166.35,143.6 166.35,144.16 150.52,144.16 124.18,121.4 98.24,144.16 82.64,144.16 82.64,143.6 115.98,114.96 82.72,86.55 82.72,85.99 98.55,85.99 124.02,107.95 149.09,85.99 164.76,85.99 164.76,86.55 "/>
    </g>
    <g>
     <path class="fil2" d="M51.04 117.24c-9.44,0 -14.16,-4.19 -14.16,-12.57l0 -33.02c0,-8.38 4.72,-12.57 14.16,-12.57l53.24 0 0 9.95 -47.99 0c-4.08,0 -6.13,1.88 -6.13,5.65l0 26.98c0,3.77 2.04,5.65 6.13,5.65l36.05 0 0 -15.04c0,-2.55 -1.43,-3.82 -4.3,-3.82l-26.82 0 0 -8.44 33.02 0c6.95,0 10.42,2.89 10.42,8.67l0 28.57 -53.64 0z"/>
     <polygon class="fil2" points="135.17,110.14 169.31,139.35 169.31,139.9 153.47,139.9 127.13,117.14 101.19,139.9 85.59,139.9 85.59,139.35 118.94,110.7 85.67,82.29 85.67,81.73 101.51,81.73 126.97,103.69 152.04,81.73 167.72,81.73 167.72,82.29 "/>
    </g>
   </g>
  </g>
 </g>
</svg>
