<?xml version="1.0" encoding="UTF-8"?>
<!DOCTYPE svg PUBLIC "-//W3C//DTD SVG 1.1//EN" "http://www.w3.org/Graphics/SVG/1.1/DTD/svg11.dtd">
<!-- Creator: CorelDRAW 2021 (64-Bit) -->
<svg xmlns="http://www.w3.org/2000/svg" xml:space="preserve" width="0.666665in" height="0.406925in" version="1.1" style="shape-rendering:geometricPrecision; text-rendering:geometricPrecision; image-rendering:optimizeQuality; fill-rule:evenodd; clip-rule:evenodd"
viewBox="0 0 37.95 23.16"
 xmlns:xlink="http://www.w3.org/1999/xlink"
 xmlns:xodm="http://www.corel.com/coreldraw/odm/2003">
 <defs>
  <style type="text/css">
   <![CDATA[
    .fil0 {fill:#1A1A1A;fill-rule:nonzero}
   ]]>
  </style>
 </defs>
 <g id="Capa_x0020_1">
  <metadata id="CorelCorpID_0Corel-Layer"/>
  <path class="fil0" d="M28.17 14.64l9.78 8.37 0 0.16 -4.54 0 -7.55 -6.52 -7.43 6.52 -4.47 0 0 -0.16 9.55 -8.21 -4.09 -3.49 0 5.36 -15.37 0c-2.71,0 -4.06,-1.2 -4.06,-3.6l0 -9.46c0,-2.4 1.35,-3.6 4.06,-3.6l15.26 0 0 2.85 -13.75 0c-1.17,0 -1.76,0.54 -1.76,1.62l0 7.73c0,1.08 0.59,1.62 1.76,1.62l10.33 0 0 -4.31c0,-0.73 -0.41,-1.09 -1.23,-1.09l-7.68 0 0 -2.42 9.46 0c0.89,0 1.58,0.17 2.07,0.5l0.01 0 0.02 0.02c0.12,0.08 0.22,0.17 0.32,0.27l6.96 6 7.18 -6.29 4.49 0 0 0.16 -9.33 7.98z"/>
 </g>
</svg>
