<?xml version="1.0" encoding="UTF-8"?>
<!DOCTYPE svg PUBLIC "-//W3C//DTD SVG 1.1//EN" "http://www.w3.org/Graphics/SVG/1.1/DTD/svg11.dtd">
<!-- Creator: CorelDRAW 2021 (64-Bit) -->
<svg xmlns="http://www.w3.org/2000/svg" xml:space="preserve" width="0.666665in" height="0.406925in" version="1.1" style="shape-rendering:geometricPrecision; text-rendering:geometricPrecision; image-rendering:optimizeQuality; fill-rule:evenodd; clip-rule:evenodd"
viewBox="0 0 37.8 23.08"
 xmlns:xlink="http://www.w3.org/1999/xlink"
 xmlns:xodm="http://www.corel.com/coreldraw/odm/2003">
 <defs>
  <style type="text/css">
   <![CDATA[
    .fil0 {fill:white;fill-rule:nonzero}
   ]]>
  </style>
 </defs>
 <g id="Capa_x0020_1">
  <metadata id="CorelCorpID_0Corel-Layer"/>
  <path class="fil0" d="M28.06 14.58l9.75 8.34 0 0.16 -4.52 0 -7.52 -6.5 -7.41 6.5 -4.45 0 0 -0.16 9.52 -8.18 -4.07 -3.48 0 5.34 -15.31 0c-2.7,0 -4.04,-1.2 -4.04,-3.59l0 -9.43c0,-2.39 1.35,-3.59 4.04,-3.59l15.2 0 0 2.84 -13.7 0c-1.17,0 -1.75,0.54 -1.75,1.61l0 7.7c0,1.08 0.58,1.61 1.75,1.61l10.29 0 0 -4.29c0,-0.73 -0.41,-1.09 -1.23,-1.09l-7.66 0 0 -2.41 9.43 0c0.89,0 1.58,0.17 2.07,0.5l0.01 0 0.02 0.02c0.12,0.08 0.22,0.17 0.32,0.27l6.93 5.98 7.16 -6.27 4.48 0 0 0.16 -9.29 7.95z"/>
 </g>
</svg>
