<?xml version="1.0" encoding="UTF-8"?>
<!DOCTYPE svg PUBLIC "-//W3C//DTD SVG 1.1//EN" "http://www.w3.org/Graphics/SVG/1.1/DTD/svg11.dtd">
<!-- Creator: CorelDRAW 2021 (64-Bit) -->
<svg xmlns="http://www.w3.org/2000/svg" xml:space="preserve" width="2.23667in" height="2.23667in" version="1.1" style="shape-rendering:geometricPrecision; text-rendering:geometricPrecision; image-rendering:optimizeQuality; fill-rule:evenodd; clip-rule:evenodd"
viewBox="0 0 274.63 274.63"
 xmlns:xlink="http://www.w3.org/1999/xlink"
 xmlns:xodm="http://www.corel.com/coreldraw/odm/2003">
 <defs>
  <style type="text/css">
   <![CDATA[
    .fil0 {fill:#FDFDFD}
    .fil2 {fill:#1A1A1A;fill-rule:nonzero}
    .fil1 {fill:#B3B3B3;fill-rule:nonzero}
   ]]>
  </style>
 </defs>
 <g id="Capa_x0020_1">
  <metadata id="CorelCorpID_0Corel-Layer"/>
  <g id="_2076652215712">
   <circle class="fil0" cx="137.32" cy="137.32" r="137.32"/>
   <g>
    <g>
     <path class="fil1" d="M64.98 164.18c-12.76,0 -19.14,-5.66 -19.14,-16.99l0 -44.63c0,-11.33 6.38,-16.99 19.14,-16.99l71.94 0 0 13.44 -64.84 0c-5.52,0 -8.28,2.54 -8.28,7.63l0 36.46c0,5.09 2.76,7.63 8.28,7.63l48.71 0 0 -20.32c0,-3.44 -1.94,-5.16 -5.81,-5.16l-36.24 0 0 -11.4 44.63 0c9.39,0 14.09,3.91 14.09,11.72l0 38.61 -72.48 0z"/>
     <polygon class="fil1" points="178.67,154.59 224.8,194.06 224.8,194.81 203.4,194.81 167.81,164.06 132.75,194.81 111.67,194.81 111.67,194.06 156.73,155.35 111.78,116.95 111.78,116.2 133.18,116.2 167.59,145.88 201.47,116.2 222.65,116.2 222.65,116.95 "/>
    </g>
    <g>
     <path class="fil2" d="M68.97 158.43c-12.76,0 -19.14,-5.66 -19.14,-16.99l0 -44.63c0,-11.33 6.38,-16.99 19.14,-16.99l71.94 0 0 13.44 -64.84 0c-5.52,0 -8.28,2.54 -8.28,7.63l0 36.46c0,5.09 2.76,7.63 8.28,7.63l48.71 0 0 -20.32c0,-3.44 -1.94,-5.16 -5.81,-5.16l-36.24 0 0 -11.4 44.63 0c9.39,0 14.09,3.91 14.09,11.72l0 38.61 -72.48 0z"/>
     <polygon class="fil2" points="182.66,148.84 228.79,188.3 228.79,189.06 207.39,189.06 171.8,158.3 136.74,189.06 115.66,189.06 115.66,188.3 160.72,149.59 115.77,111.2 115.77,110.45 137.17,110.45 171.58,140.13 205.46,110.45 226.64,110.45 226.64,111.2 "/>
    </g>
   </g>
  </g>
 </g>
</svg>
