<?xml version="1.0" encoding="UTF-8"?>
<!DOCTYPE svg PUBLIC "-//W3C//DTD SVG 1.1//EN" "http://www.w3.org/Graphics/SVG/1.1/DTD/svg11.dtd">
<!-- Creator: CorelDRAW 2021 (64-Bit) -->
<svg xmlns="http://www.w3.org/2000/svg" xml:space="preserve" width="100%" height="100%" version="1.1" style="shape-rendering:geometricPrecision; text-rendering:geometricPrecision; image-rendering:optimizeQuality; fill-rule:evenodd; clip-rule:evenodd"
viewBox="0 0 1.5 1.5"
 xmlns:xlink="http://www.w3.org/1999/xlink"
 xmlns:xodm="http://www.corel.com/coreldraw/odm/2003">
 <defs>
  <style type="text/css">
   <![CDATA[
    .fil0 {fill:#1A1A1A}
    .fil1 {fill:#6F00D1;fill-rule:nonzero}
    .fil2 {fill:#FDFDFD;fill-rule:nonzero}
   ]]>
  </style>
 </defs>
 <g id="Capa_x0020_1">
  <metadata id="CorelCorpID_0Corel-Layer"/>
  <g id="_1742360626992">
   <path class="fil0" d="M0.75 0c0.41421,0 0.75,0.33579 0.75,0.75 0,0.41421 -0.33579,0.75 -0.75,0.75 -0.41421,0 -0.75,-0.33579 -0.75,-0.75 0,-0.41421 0.33579,-0.75 0.75,-0.75z"/>
   <g>
    <path class="fil1" d="M0.97586 0.84437l0.25197 0.21556 0 0.00411 -0.11688 0 -0.19441 -0.16798 -0.19148 0.16798 -0.11512 0 0 -0.00411 0.2461 -0.21145 -0.10526 -0.0899 0 0.13817 -0.39587 0c-0.0697,0 -0.10455,-0.03093 -0.10455,-0.0928l0 -0.24375c0,-0.06187 0.03485,-0.0928 0.10455,-0.0928l0.39294 0 0 0.07342 -0.35417 0c-0.03015,0 -0.04523,0.0139 -0.04523,0.0417l0 0.19911c0,0.0278 0.01507,0.0417 0.04523,0.0417l0.26607 0 0 -0.11101c0,-0.0188 -0.01057,-0.02819 -0.03172,-0.02819l-0.19794 0 0 -0.06226 0.24375 0c0.02294,0 0.04075,0.00427 0.05343,0.01281l0.00014 0 0.00052 0.00045c0.00301,0.00209 0.00572,0.00443 0.00814,0.00702l0.17929 0.15464 0.18502 -0.16211 0.1157 0 0 0.00411 -0.24022 0.20557z"/>
    <path class="fil2" d="M0.99767 0.81293l0.25197 0.21556 0 0.00411 -0.11688 0 -0.19441 -0.16798 -0.19148 0.16798 -0.11512 0 0 -0.00411 0.2461 -0.21145 -0.10526 -0.0899 0 0.13818 -0.39587 0c-0.0697,0 -0.10455,-0.03093 -0.10455,-0.0928l0 -0.24375c0,-0.06187 0.03485,-0.0928 0.10455,-0.0928l0.39293 0 0 0.07342 -0.35417 0c-0.03015,0 -0.04523,0.0139 -0.04523,0.0417l0 0.19911c0,0.0278 0.01507,0.0417 0.04523,0.0417l0.26607 0 0 -0.11101c0,-0.0188 -0.01057,-0.02819 -0.03172,-0.02819l-0.19794 0 0 -0.06226 0.24375 0c0.02294,0 0.04074,0.00427 0.05342,0.01281l0.00015 0 0.00056 0.00048c0.00299,0.00208 0.00569,0.00441 0.00809,0.00698l0.17931 0.15465 0.18502 -0.16211 0.1157 0 0 0.00411 -0.24022 0.20557z"/>
   </g>
  </g>
 </g>
</svg>
