<?xml version="1.0" encoding="UTF-8"?>
<!DOCTYPE svg PUBLIC "-//W3C//DTD SVG 1.1//EN" "http://www.w3.org/Graphics/SVG/1.1/DTD/svg11.dtd">
<!-- Creator: CorelDRAW 2021 (64-Bit) -->
<svg xmlns="http://www.w3.org/2000/svg" xml:space="preserve" width="100%" height="100%" version="1.1" style="shape-rendering:geometricPrecision; text-rendering:geometricPrecision; image-rendering:optimizeQuality; fill-rule:evenodd; clip-rule:evenodd"
viewBox="0 0 1 0.61039"
 xmlns:xlink="http://www.w3.org/1999/xlink"
 xmlns:xodm="http://www.corel.com/coreldraw/odm/2003">
 <defs>
  <style type="text/css">
   <![CDATA[
    .fil0 {fill:#1A1A1A;fill-rule:nonzero}
   ]]>
  </style>
 </defs>
 <g id="Capa_x0020_1">
  <metadata id="CorelCorpID_0Corel-Layer"/>
  <path class="fil0" d="M0.74222 0.38565l0.25778 0.22053 0 0.0042 -0.11957 0 -0.19889 -0.17185 -0.19589 0.17185 -0.11778 0 0 -0.0042 0.25177 -0.21632 -0.10768 -0.09197 0 0.14136 -0.405 0c-0.07131,0 -0.10696,-0.03165 -0.10696,-0.09494l0 -0.24937c0,-0.0633 0.03565,-0.09494 0.10696,-0.09494l0.40199 0 0 0.07511 -0.36233 0c-0.03085,0 -0.04627,0.01422 -0.04627,0.04266l0 0.2037c0,0.02844 0.01542,0.04267 0.04627,0.04267l0.2722 0 0 -0.11357c0,-0.01923 -0.01081,-0.02884 -0.03244,-0.02884l-0.2025 0 0 -0.0637 0.24937 0c0.02347,0 0.04168,0.00437 0.05466,0.0131l0.00014 0 0.00054 0.00046c0.00309,0.00215 0.00587,0.00455 0.00835,0.0072l0.1834 0.15818 0.18928 -0.16585 0.11838 0 0 0.0042 -0.24576 0.21031z"/>
 </g>
</svg>
