<?xml version="1.0" encoding="UTF-8"?>
<!DOCTYPE svg PUBLIC "-//W3C//DTD SVG 1.1//EN" "http://www.w3.org/Graphics/SVG/1.1/DTD/svg11.dtd">
<!-- Creator: CorelDRAW 2021 (64-Bit) -->
<svg xmlns="http://www.w3.org/2000/svg" xml:space="preserve" width="1.33333in" height="0.152886in" version="1.1" style="shape-rendering:geometricPrecision; text-rendering:geometricPrecision; image-rendering:optimizeQuality; fill-rule:evenodd; clip-rule:evenodd"
viewBox="0 0 136.74 15.68"
 xmlns:xlink="http://www.w3.org/1999/xlink"
 xmlns:xodm="http://www.corel.com/coreldraw/odm/2003">
 <defs>
  <style type="text/css">
   <![CDATA[
    .fil0 {fill:#1A1A1A;fill-rule:nonzero}
   ]]>
  </style>
 </defs>
 <g id="Capa_x0020_1">
  <metadata id="CorelCorpID_0Corel-Layer"/>
  <path class="fil0" d="M3.82 15.68c-2.55,0 -3.82,-1.13 -3.82,-3.39l0 -8.9c0,-2.26 1.27,-3.39 3.82,-3.39l14.35 0 0 2.68 -12.93 0c-1.1,0 -1.65,0.51 -1.65,1.52l0 7.27c0,1.02 0.55,1.52 1.65,1.52l9.72 0 0 -4.05c0,-0.69 -0.39,-1.03 -1.16,-1.03l-7.23 0 0 -2.27 8.9 0c1.87,0 2.81,0.78 2.81,2.34l0 7.7 -14.46 0zm32.95 -15.68c2.55,0 3.82,1.13 3.82,3.39l0 12.29 -3.58 0 0 -5.3 -12.01 0 0 5.3 -3.58 0 0 -12.29c0,-2.26 1.27,-3.39 3.8,-3.39l11.56 0zm-11.78 8.11l12.01 0 0 -3.9c0,-1.02 -0.55,-1.52 -1.65,-1.52l-8.73 0c-1.09,0 -1.63,0.51 -1.63,1.52l0 3.9zm22.22 -8.11c0.73,0 1.23,0.25 1.5,0.75l7.76 11.93 7.76 -11.93c0.29,-0.5 0.79,-0.75 1.5,-0.75l1.54 0c1.3,0 1.95,0.61 1.95,1.84l0 13.83 -3.2 0 0 -11.75 -7.27 11c-0.3,0.5 -0.75,0.75 -1.35,0.75l-1.87 0c-0.59,0 -1.04,-0.25 -1.37,-0.75l-7.25 -10.98 0 11.73 -3.2 0 0 -13.83c0,-1.23 0.64,-1.84 1.93,-1.84l1.54 0zm28.83 5.64l11.52 0 0 2.27 -11.52 0 0 5.08 14.56 0 0 2.68 -18.15 0 0 -15.68 18.15 0 0 2.68 -14.56 0 0 2.96zm17.35 -5.64l14.8 0c2.82,0 4.23,1.27 4.23,3.82l0 2.1c0,2.45 -1.29,3.72 -3.86,3.82l4.63 5.79 0 0.15 -3.97 0 -4.7 -5.94 -7.55 0 0 5.94 -3.58 0 0 -15.68zm15.49 4.35c0,-1.16 -0.61,-1.74 -1.82,-1.74l-10.08 0 0 4.83 10.08 0c1.22,0 1.82,-0.58 1.82,-1.74l0 -1.35zm18.66 3.3l9.2 7.87 0 0.15 -4.27 0 -7.1 -6.13 -6.99 6.13 -4.2 0 0 -0.15 8.99 -7.72 -8.97 -7.66 0 -0.15 4.27 0 6.86 5.92 6.76 -5.92 4.23 0 0 0.15 -8.77 7.51z"/>
 </g>
</svg>
