<?xml version="1.0" encoding="UTF-8"?>
<!DOCTYPE svg PUBLIC "-//W3C//DTD SVG 1.1//EN" "http://www.w3.org/Graphics/SVG/1.1/DTD/svg11.dtd">
<!-- Creator: CorelDRAW 2021 (64-Bit) -->
<svg xmlns="http://www.w3.org/2000/svg" xml:space="preserve" width="100%" height="100%" version="1.1" style="shape-rendering:geometricPrecision; text-rendering:geometricPrecision; image-rendering:optimizeQuality; fill-rule:evenodd; clip-rule:evenodd"
viewBox="0 0 2 0.22933"
 xmlns:xlink="http://www.w3.org/1999/xlink"
 xmlns:xodm="http://www.corel.com/coreldraw/odm/2003">
 <defs>
  <style type="text/css">
   <![CDATA[
    .fil0 {fill:#1A1A1A;fill-rule:nonzero}
   ]]>
  </style>
 </defs>
 <g id="Capa_x0020_1">
  <metadata id="CorelCorpID_0Corel-Layer"/>
  <path class="fil0" d="M0.05583 0.22933c-0.03722,0 -0.05584,-0.01652 -0.05584,-0.04957l0 -0.1302c0,-0.03304 0.01861,-0.04956 0.05584,-0.04956l0.20989 0 0 0.03921 -0.18918 0c-0.0161,0 -0.02416,0.00742 -0.02416,0.02228l0 0.10635c0,0.01485 0.00806,0.02227 0.02416,0.02227l0.14212 0 0 -0.0593c0,-0.01004 -0.00565,-0.01506 -0.01694,-0.01506l-0.10573 0 0 -0.03326 0.1302 0c0.02739,0 0.04109,0.0114 0.04109,0.0342l0 0.11263 -0.21145 0zm0.48189 -0.22933c0.03723,0 0.05585,0.01652 0.05585,0.04956l0 0.17977 -0.0524 0 0 -0.07749 -0.17568 0 0 0.07749 -0.0524 0 0 -0.17977c0,-0.03304 0.01851,-0.04956 0.05554,-0.04956l0.16909 0zm-0.17223 0.11858l0.17568 0 0 -0.05709c0,-0.01485 -0.00805,-0.02228 -0.02415,-0.02228l-0.12769 0c-0.01589,0 -0.02384,0.00742 -0.02384,0.02228l0 0.05709zm0.32502 -0.11858c0.01067,0 0.01798,0.00366 0.02196,0.01098l0.11357 0.17443 0.11357 -0.17443c0.00418,-0.00732 0.0115,-0.01098 0.02196,-0.01098l0.02259 0c0.01903,0 0.02855,0.00899 0.02855,0.02698l0 0.20235 -0.04674 0 0 -0.17192 -0.10635 0.16094c-0.00439,0.00731 -0.01098,0.01098 -0.01976,0.01098l-0.02729 0c-0.00857,0 -0.01527,-0.00366 -0.02008,-0.01098l-0.10604 -0.16063 0 0.17161 -0.04675 0 0 -0.20235c0,-0.01799 0.00941,-0.02698 0.02824,-0.02698l0.02259 0zm0.42165 0.08251l0.16846 0 0 0.03326 -0.16846 0 0 0.07435 0.21302 0 0 0.03922 -0.26541 0 0 -0.22933 0.26541 0 0 0.03921 -0.21302 0 0 0.0433zm0.2538 -0.08251l0.21647 0c0.0412,0 0.0618,0.01861 0.0618,0.05584l0 0.03075c0,0.03576 -0.01882,0.05438 -0.05648,0.05584l0.06777 0.08471 0 0.0022 -0.05804 0 -0.0687 -0.08691 -0.11043 0 0 0.08691 -0.05239 0 0 -0.22933zm0.22651 0.06369c0,-0.01694 -0.00889,-0.02541 -0.02666,-0.02541l-0.14745 0 0 0.07058 0.14745 0c0.01778,0 0.02666,-0.00847 0.02666,-0.02541l0 -0.01976zm0.27294 0.04831l0.13459 0.11514 0 0.0022 -0.06243 0 -0.10385 -0.08972 -0.10227 0.08972 -0.0615 0 0 -0.0022 0.13146 -0.11294 -0.13114 -0.112 0 -0.00219 0.06243 0 0.10039 0.08659 0.09883 -0.08659 0.06181 0 0 0.00219 -0.12832 0.10981z"/>
 </g>
</svg>
