<?xml version="1.0" encoding="UTF-8"?>
<!DOCTYPE svg PUBLIC "-//W3C//DTD SVG 1.1//EN" "http://www.w3.org/Graphics/SVG/1.1/DTD/svg11.dtd">
<!-- Creator: CorelDRAW 2021 (64-Bit) -->
<svg xmlns="http://www.w3.org/2000/svg" xml:space="preserve" width="1.33333in" height="0.152886in" version="1.1" style="shape-rendering:geometricPrecision; text-rendering:geometricPrecision; image-rendering:optimizeQuality; fill-rule:evenodd; clip-rule:evenodd"
viewBox="0 0 136.27 15.62"
 xmlns:xlink="http://www.w3.org/1999/xlink"
 xmlns:xodm="http://www.corel.com/coreldraw/odm/2003">
 <defs>
  <style type="text/css">
   <![CDATA[
    .fil0 {fill:white;fill-rule:nonzero}
   ]]>
  </style>
 </defs>
 <g id="Capa_x0020_1">
  <metadata id="CorelCorpID_0Corel-Layer"/>
  <path class="fil0" d="M3.8 15.62c-2.54,0 -3.8,-1.13 -3.8,-3.38l0 -8.87c0,-2.25 1.27,-3.38 3.8,-3.38l14.3 0 0 2.67 -12.89 0c-1.1,0 -1.65,0.51 -1.65,1.52l0 7.25c0,1.01 0.55,1.52 1.65,1.52l9.68 0 0 -4.04c0,-0.68 -0.39,-1.03 -1.15,-1.03l-7.2 0 0 -2.27 8.87 0c1.87,0 2.8,0.78 2.8,2.33l0 7.67 -14.41 0zm32.83 -15.62c2.54,0 3.81,1.13 3.81,3.38l0 12.25 -3.57 0 0 -5.28 -11.97 0 0 5.28 -3.57 0 0 -12.25c0,-2.25 1.26,-3.38 3.78,-3.38l11.52 0zm-11.73 8.08l11.97 0 0 -3.89c0,-1.01 -0.55,-1.52 -1.65,-1.52l-8.7 0c-1.08,0 -1.62,0.51 -1.62,1.52l0 3.89zm22.14 -8.08c0.73,0 1.23,0.25 1.5,0.75l7.74 11.88 7.74 -11.88c0.28,-0.5 0.78,-0.75 1.5,-0.75l1.54 0c1.3,0 1.95,0.61 1.95,1.84l0 13.79 -3.18 0 0 -11.71 -7.25 10.97c-0.3,0.5 -0.75,0.75 -1.35,0.75l-1.86 0c-0.58,0 -1.04,-0.25 -1.37,-0.75l-7.22 -10.94 0 11.69 -3.19 0 0 -13.79c0,-1.23 0.64,-1.84 1.92,-1.84l1.54 0zm28.73 5.62l11.48 0 0 2.27 -11.48 0 0 5.07 14.51 0 0 2.67 -18.08 0 0 -15.62 18.08 0 0 2.67 -14.51 0 0 2.95zm17.29 -5.62l14.75 0c2.81,0 4.21,1.27 4.21,3.8l0 2.09c0,2.44 -1.28,3.7 -3.85,3.8l4.62 5.77 0 0.15 -3.95 0 -4.68 -5.92 -7.52 0 0 5.92 -3.57 0 0 -15.62zm15.43 4.34c0,-1.15 -0.61,-1.73 -1.82,-1.73l-10.05 0 0 4.81 10.05 0c1.21,0 1.82,-0.58 1.82,-1.73l0 -1.35zm18.6 3.29l9.17 7.84 0 0.15 -4.25 0 -7.08 -6.11 -6.97 6.11 -4.19 0 0 -0.15 8.96 -7.69 -8.93 -7.63 0 -0.15 4.25 0 6.84 5.9 6.73 -5.9 4.21 0 0 0.15 -8.74 7.48z"/>
 </g>
</svg>
